# xmcd
#
# Track frame offsets: 
#        150
#        22260
#        39800
#        60430
#        86945
#        106465
#        134363
#        152340
#        173720
#        198818
#        217238
#        238200
#        255153
#
# Disc length: 3428 seconds
#
# Revision: 0
# Processed by: cddbd v1.5.2PL0 Copyright (c) Steve Scherf et al.
# Submitted via: ExactAudioCopy v1.0b3
#
DISCID=ab0d620d
DTITLE=Various Artist - Xuan Nay Neu Vang Anh (Xuan Nho Me)
DYEAR=1991
DGENRE=
TTITLE0=Huong Lan - Mua Xuan cua Me
TTITLE1=Elvis Phuong - Xuan tuoi
TTITLE2=Thanh Thuy - Canh thiep dau Xuan
TTITLE3=Duy Quang - Don Xuan nay nho Xuan xua
TTITLE4=Thanh Tuyen - Phien gac dem Xuan
TTITLE5=Che Linh - Cam on
TTITLE6=Huong Lan - Neu Xuan nay vang anh
TTITLE7=Ngoc Lan - Ta da gap mua Xuan
TTITLE8=Tuan Anh - Xuan da ve
TTITLE9=Thanh Thuy - Ngay Xuan tham nhau
TTITLE10=Kieu Nga - Mung nang Xuan ve
TTITLE11=Duy Quang - Ngay Xuan do co em
TTITLE12=Huong Lan - Loi cam ta
EXTD=
EXTT0=
EXTT1=
EXTT2=
EXTT3=
EXTT4=
EXTT5=
EXTT6=
EXTT7=
EXTT8=
EXTT9=
EXTT10=
EXTT11=
EXTT12=
PLAYORDER=
